<?xml version="1.0" encoding="utf-8" standalone="no"?>
<svg viewBox="0 0 819 923" version="1.1" xmlns="http://www.w3.org/2000/svg" xmlns:xlink="http://www.w3.org/1999/xlink" stroke-linecap="round" stroke-linejoin="round" fill-rule="evenodd" xml:space="preserve" >
<g fill="none" stroke="rgb(255,255,255)" stroke-width="15" >
<polyline points="443.791,512.511 526.749,512.511 " />
<polyline points="271.494,432.744 462.935,241.303 " />
<polyline points="526.749,512.511 612.157,414.291 " />
<path d="M41.0093,816.702  A79.358,79.358 0 0,0 41.7274,865.214 " />
<path d="M64.2381,879.263  A263.684,263.684 0 0,0 216.929,850.872 " />
<path d="M729.258,256.309  A394.408,394.408 0 0,0 773.183,159.079 " />
<path d="M612.157,414.291  A1263.81,1263.81 0 0,0 729.258,256.309 " />
<path d="M404.885,523.866  A834.775,834.775 0 0,0 303.401,400.837 " />
<path d="M271.494,432.744  A923.996,923.996 0 0,0 41.0093,816.702 " />
<path d="M41.7274,865.214  A14.4458,14.4458 0 0,0 46.4853,871.951 " />
<path d="M773.183,159.079  A199.573,199.573 0 0,0 772.118,41.9923 " />
<path d="M399.122,528.464  A535.884,535.884 0 0,0 230.351,830.317 " />
<path d="M46.4853,871.951  A35.2726,35.2726 0 0,0 64.2381,879.263 " />
<path d="M443.791,512.511  A62.4712,62.4712 0 0,0 399.122,528.464 " />
<path d="M772.118,41.9923  A870.874,870.874 0 0,0 462.935,241.303 " />
<path d="M216.929,850.872  A31.7331,31.7331 0 0,0 230.351,830.317 " />
</g>
</svg>
