<?xml version="1.0" encoding="utf-8" standalone="no"?>
<svg viewBox="0 0 905 1016" version="1.1" xmlns="http://www.w3.org/2000/svg" xmlns:xlink="http://www.w3.org/1999/xlink" stroke-linecap="round" stroke-linejoin="round" fill-rule="evenodd" xml:space="preserve" >
<g fill="none" stroke="rgb(255,255,255)" stroke-width="15" >
<polyline points="691.506,222.338 811.437,80.6018 " />
<polyline points="498.047,481.586 534.094,512.087 " />
<polyline points="41.481,969.786 89.7306,969.786 " />
<polyline points="603.954,356.423 640.001,386.924 " />
<polyline points="41.481,332.629 41.481,969.786 " />
<polyline points="727.553,252.84 863.519,92.153 " />
<polyline points="41.481,332.629 89.1664,276.273 " />
<polyline points="180.325,857.076 216.372,887.577 " />
<polyline points="392.139,606.749 428.186,637.25 " />
<polyline points="725.893,61.6291 863.519,92.153 " />
<polyline points="286.232,731.912 322.279,762.414 " />
<path d="M534.094,512.087  A82.6348,82.6348 0 0,0 428.186,637.25 " />
<path d="M725.893,61.6291  A649.779,649.779 0 0,0 89.1664,276.273 " />
<path d="M727.553,252.84  A82.6348,82.6348 0 0,0 640.001,386.924 " />
<path d="M392.139,606.749  A82.6348,82.6348 0 0,0 286.232,731.912 " />
<path d="M216.372,887.577  A82.6348,82.6348 0 0,0 89.7306,969.786 " />
<path d="M428.186,637.25  A82.6348,82.6348 0 0,0 322.279,762.414 " />
<path d="M286.232,731.912  A82.6348,82.6348 0 0,0 180.325,857.076 " />
<path d="M640.001,386.924  A82.6348,82.6348 0 0,0 534.094,512.087 " />
<path d="M603.954,356.423  A82.6348,82.6348 0 0,0 498.047,481.586 " />
<path d="M498.047,481.586  A82.6348,82.6348 0 0,0 392.139,606.749 " />
<path d="M730.087,249.845  A82.6348,82.6348 0 1,0 603.954,356.423 " />
<path d="M180.325,857.076  A82.6348,82.6348 0 0,0 64.9929,969.786 " />
<polyline points="322.279,762.414 303.871,753.475 278.962,749.09 248.98,754.061 219.698,772.416 199.869,802.731 194.789,836.959 202.295,866.48 216.372,887.577 " />
</g>
</svg>
