<?xml version="1.0" encoding="utf-8" standalone="no"?>
<svg viewBox="0 0 830 1011" version="1.1" xmlns="http://www.w3.org/2000/svg" xmlns:xlink="http://www.w3.org/1999/xlink" stroke-linecap="round" stroke-linejoin="round" fill-rule="evenodd" xml:space="preserve" >
<g fill="none" stroke="rgb(255,255,255)" stroke-width="15" >
<polyline points="503.426,536.96 506.562,538.993 " />
<polyline points="400.314,463.26 486.592,539.745 " />
<polyline points="400.314,463.26 38.1081,871.843 " />
<polyline points="400.649,463.557 652.713,172.788 " />
<polyline points="153.087,962.901 486.592,539.745 " />
<path d="M38.1081,871.843  A96.3114,96.3114 0 0,0 153.087,962.901 " />
<path d="M791.892,46.2607  A793.757,793.757 0 0,0 652.713,172.788 " />
<path d="M727.865,213.507  A780.346,780.346 0 0,0 791.892,46.2607 " />
<path d="M506.562,538.993  A1693.08,1693.08 0 0,0 727.865,213.507 " />
<path d="M503.426,536.96  A12.6614,12.6614 0 0,0 486.592,539.745 " />
</g>
</svg>
