<?xml version="1.0" encoding="utf-8" standalone="no"?>
<svg viewBox="0 0 858 866" version="1.1" xmlns="http://www.w3.org/2000/svg" xmlns:xlink="http://www.w3.org/1999/xlink" stroke-linecap="round" stroke-linejoin="round" fill-rule="evenodd" xml:space="preserve" >
<g fill="none" stroke="rgb(255,255,255)" stroke-width="15" >
<polyline points="306.33,445.12 39.0365,757.452 " />
<polyline points="126.736,824.171 372.064,501.464 " />
<polyline points="585.419,119.516 606.006,95.4973 " />
<polyline points="306.33,445.12 585.419,119.516 " />
<polyline points="306.33,445.12 372.064,501.464 " />
<polyline points="514.508,508.144 478.25,546.191 " />
<polyline points="781.544,44.7673 818.964,52.5429 " />
<path d="M39.0365,757.452  A69.4624,69.4624 0 0,0 126.736,824.171 " />
<path d="M781.544,44.7673  A182.37,182.37 0 0,0 740.337,39.4132 " />
<path d="M514.508,508.144  A1799.51,1799.51 0 0,0 818.964,52.5429 " />
<path d="M749.059,39.7533  A182.37,182.37 0 0,0 606.006,95.4973 " />
<path d="M418.246,505.087  A36.4018,36.4018 0 0,0 372.064,501.464 " />
<path d="M418.246,505.087  A246.554,246.554 0 0,0 468.601,542.599 " />
<path d="M468.601,542.599  A67.2691,67.2691 0 0,0 478.25,546.191 " />
</g>
</svg>
