<?xml version="1.0" encoding="utf-8" standalone="no"?>
<svg viewBox="0 0 869 1105" version="1.1" xmlns="http://www.w3.org/2000/svg" xmlns:xlink="http://www.w3.org/1999/xlink" stroke-linecap="round" stroke-linejoin="round" fill-rule="evenodd" xml:space="preserve" >
<g fill="none" stroke="rgb(255,255,255)" stroke-width="15" >
<polyline points="342.15,632.404 39.9387,985.538 " />
<polyline points="127.638,1052.26 405.523,686.724 " />
<polyline points="127.638,1052.26 405.523,686.724 " />
<polyline points="342.15,632.404 39.9387,985.538 " />
<polyline points="127.638,1052.26 405.523,686.724 " />
<polyline points="342.15,632.404 39.9387,985.538 " />
<polyline points="127.638,1052.26 405.523,686.724 " />
<polyline points="342.15,632.404 39.9387,985.538 " />
<polyline points="127.638,1052.26 405.523,686.724 " />
<polyline points="342.15,632.404 39.9387,985.538 " />
<polyline points="342.15,632.404 39.9387,985.538 " />
<polyline points="127.638,1052.26 405.523,686.724 " />
<polyline points="342.15,632.404 39.9387,985.538 " />
<polyline points="405.523,686.724 415.188,674.012 " />
<polyline points="127.638,1052.26 405.523,686.724 " />
<polyline points="127.638,1052.26 405.523,686.724 " />
<polyline points="342.15,632.404 39.9387,985.538 " />
<polyline points="342.15,632.404 39.9387,985.538 " />
<polyline points="366.569,606.296 827.61,50.3071 " />
<polyline points="451.69,692.526 415.188,674.012 " />
<polyline points="342.15,632.404 39.9387,985.538 " />
<polyline points="127.638,1052.26 405.523,686.724 " />
<polyline points="127.638,1052.26 405.523,686.724 " />
<polyline points="342.15,632.404 39.9387,985.538 " />
<polyline points="342.15,632.404 39.9387,985.538 " />
<polyline points="342.15,632.404 39.9387,985.538 " />
<polyline points="342.15,632.404 39.9387,985.538 " />
<polyline points="482.047,575.881 761.288,218.707 " />
<polyline points="127.638,1052.26 405.523,686.724 " />
<polyline points="342.15,632.404 39.9387,985.538 " />
<polyline points="127.638,1052.26 405.523,686.724 " />
<polyline points="342.15,632.404 39.9387,985.538 " />
<polyline points="127.638,1052.26 405.523,686.724 " />
<polyline points="462.829,678.279 451.69,692.526 " />
<polyline points="342.15,632.404 39.9387,985.538 " />
<polyline points="127.638,1052.26 405.523,686.724 " />
<polyline points="342.15,632.404 39.9387,985.538 " />
<polyline points="127.638,1052.26 405.523,686.724 " />
<polyline points="127.638,1052.26 405.523,686.724 " />
<polyline points="127.638,1052.26 405.523,686.724 " />
<polyline points="342.15,632.404 39.9387,985.538 " />
<polyline points="342.15,632.404 39.9387,985.538 " />
<polyline points="342.15,632.404 39.9387,985.538 " />
<polyline points="127.638,1052.26 405.523,686.724 " />
<polyline points="127.638,1052.26 405.523,686.724 " />
<polyline points="127.638,1052.26 405.523,686.724 " />
<polyline points="342.15,632.404 39.9387,985.538 " />
<polyline points="342.15,632.404 39.9387,985.538 " />
<polyline points="127.638,1052.26 405.523,686.724 " />
<polyline points="127.638,1052.26 405.523,686.724 " />
<polyline points="366.569,606.296 342.15,632.404 " />
<polyline points="127.638,1052.26 405.523,686.724 " />
<polyline points="342.15,632.404 39.9387,985.538 " />
<polyline points="127.638,1052.26 405.523,686.724 " />
<path d="M39.9387,985.538  A69.4624,69.4624 0 0,0 127.638,1052.26 " />
<path d="M39.9387,985.538  A69.4624,69.4624 0 0,0 127.638,1052.26 " />
<path d="M39.9387,985.538  A69.4624,69.4624 0 0,0 127.638,1052.26 " />
<path d="M39.9387,985.538  A69.4624,69.4624 0 0,0 127.638,1052.26 " />
<path d="M39.9387,985.538  A69.4624,69.4624 0 0,0 127.638,1052.26 " />
<path d="M39.9387,985.538  A69.4624,69.4624 0 0,0 127.638,1052.26 " />
<path d="M39.9387,985.538  A69.4624,69.4624 0 0,0 127.638,1052.26 " />
<path d="M39.9387,985.538  A69.4624,69.4624 0 0,0 127.638,1052.26 " />
<path d="M39.9387,985.538  A69.4624,69.4624 0 0,0 127.638,1052.26 " />
<path d="M39.9387,985.538  A69.4624,69.4624 0 0,0 127.638,1052.26 " />
<path d="M39.9387,985.538  A69.4624,69.4624 0 0,0 127.638,1052.26 " />
<path d="M39.9387,985.538  A69.4624,69.4624 0 0,0 127.638,1052.26 " />
<path d="M39.9387,985.538  A69.4624,69.4624 0 0,0 127.638,1052.26 " />
<path d="M39.9387,985.538  A69.4624,69.4624 0 0,0 127.638,1052.26 " />
<path d="M39.9387,985.538  A69.4624,69.4624 0 0,0 127.638,1052.26 " />
<path d="M39.9387,985.538  A69.4624,69.4624 0 0,0 127.638,1052.26 " />
<path d="M39.9387,985.538  A69.4624,69.4624 0 0,0 127.638,1052.26 " />
<path d="M39.9387,985.538  A69.4624,69.4624 0 0,0 127.638,1052.26 " />
<path d="M39.9387,985.538  A69.4624,69.4624 0 0,0 127.638,1052.26 " />
<path d="M482.047,575.881  A111.737,111.737 0 0,0 462.829,678.279 " />
<path d="M39.9387,985.538  A69.4624,69.4624 0 0,0 127.638,1052.26 " />
<path d="M39.9387,985.538  A69.4624,69.4624 0 0,0 127.638,1052.26 " />
<path d="M39.9387,985.538  A69.4624,69.4624 0 0,0 127.638,1052.26 " />
<path d="M366.569,606.296  A338,338 0 0,0 459.133,683.007 " />
<path d="M761.288,218.707  A458.283,458.283 0 0,0 798.082,164.844 " />
<path d="M798.082,164.844  A260.158,260.158 0 0,0 825.269,98.7569 " />
<path d="M39.9387,985.538  A69.4624,69.4624 0 0,0 127.638,1052.26 " />
<path d="M39.9387,985.538  A69.4624,69.4624 0 0,0 127.638,1052.26 " />
<path d="M825.269,98.7569  A119.572,119.572 0 0,0 827.61,50.3071 " />
</g>
</svg>
