<?xml version="1.0" encoding="utf-8" standalone="no"?>
<svg viewBox="0 0 844 764" version="1.1" xmlns="http://www.w3.org/2000/svg" xmlns:xlink="http://www.w3.org/1999/xlink" stroke-linecap="round" stroke-linejoin="round" fill-rule="evenodd" xml:space="preserve" >
<g fill="none" stroke="rgb(255,255,255)" stroke-width="15" >
<polyline points="707.648,409.144 786.991,530.433 " />
<polyline points="777.233,539.587 798.517,601.859 " />
<polyline points="38.7173,641.473 98.6262,678.555 " />
<polyline points="786.991,530.433 776.3,537.427 " />
<polyline points="609.277,317.544 309.168,35.0741 " />
<polyline points="309.168,35.0741 309.168,252.82 " />
<polyline points="523.816,493.039 309.168,252.82 " />
<polyline points="634.458,503.414 384.758,223.968 " />
<polyline points="384.758,106.222 384.758,223.968 " />
<polyline points="309.168,252.82 384.758,223.968 " />
<path d="M803.646,655.641  A98.5907,98.5907 0 0,0 798.517,601.859 " />
<path d="M280.634,728.926  A1636.02,1636.02 0 0,0 433.442,715.842 " />
<path d="M777.233,539.587  A92.0237,92.0237 0 0,0 624.327,512.951 " />
<path d="M609.277,317.544  A1552.74,1552.74 0 0,0 707.648,409.144 " />
<path d="M364.566,526.935  A47.2196,47.2196 0 0,0 339.839,526.597 " />
<path d="M527.933,526.93  A75.4433,75.4433 0 0,0 493.233,527.98 " />
<path d="M120.758,694.563  A190.002,190.002 0 0,0 98.6262,678.555 " />
<path d="M527.933,526.93  A248.454,248.454 0 0,0 581.351,531.952 " />
<path d="M107.091,526.367  A31.5539,31.5539 0 0,0 83.6478,538.908 " />
<path d="M83.6478,538.908  A192.973,192.973 0 0,0 38.7173,641.473 " />
<path d="M120.758,694.563  A102.481,102.481 0 0,0 165.127,716.257 " />
<path d="M550.723,530.502  A1344.56,1344.56 0 0,0 523.816,493.039 " />
<path d="M364.566,526.935  A240.743,240.743 0 0,0 493.233,527.98 " />
<path d="M757.801,687.43  A1440.12,1440.12 0 0,0 433.442,715.842 " />
<path d="M581.351,531.952  A60.0747,60.0747 0 0,0 624.327,512.951 " />
<path d="M117.396,528.686  A91.7002,91.7002 0 0,0 157.473,541.821 " />
<path d="M757.801,687.43  A39.58,39.58 0 0,0 803.646,655.641 " />
<path d="M157.473,541.821  A547.358,547.358 0 0,0 339.839,526.597 " />
<path d="M117.396,528.686  A16.4265,16.4265 0 0,0 107.091,526.367 " />
<path d="M165.127,716.257  A569.657,569.657 0 0,0 280.634,728.926 " />
</g>
</svg>
