<?xml version="1.0" encoding="utf-8" standalone="no"?>
<svg viewBox="10 0 872 1017" version="1.1" xmlns="http://www.w3.org/2000/svg" xmlns:xlink="http://www.w3.org/1999/xlink" stroke-linecap="round" stroke-linejoin="round" fill-rule="evenodd" xml:space="preserve" >
<g fill="none" stroke="rgb(255,255,255)" stroke-width="15" >
<polyline points="127.033,968.47 382.851,649.646 " />
<polyline points="382.851,649.646 316.237,591.763 " />
<polyline points="339.252,566.254 39.657,898.312 " />
<polyline points="458.429,671.995 425.436,643.326 " />
<path d="M734.705,120.322  A5404.23,5404.23 0 0,0 465.32,420.724 " />
<path d="M832.168,46.5141  A865.094,865.094 0 0,0 734.705,120.322 " />
<path d="M752.965,296.675  A704.838,704.838 0 0,0 824.602,118.952 " />
<path d="M339.252,566.254  A4769.08,4769.08 0 0,0 465.32,420.724 " />
<path d="M458.429,671.995  A1673.55,1673.55 0 0,0 752.965,296.675 " />
<path d="M824.602,118.952  A256,256 0 0,0 832.168,46.5141 " />
<path d="M39.657,898.312  A70.6371,70.6371 0 0,0 127.033,968.47 " />
<path d="M425.436,643.326  A31.6727,31.6727 0 0,0 382.851,649.646 " />
</g>
</svg>
