<?xml version="1.0" encoding="utf-8" standalone="no"?>
<svg viewBox="0 0 844 769" version="1.1" xmlns="http://www.w3.org/2000/svg" xmlns:xlink="http://www.w3.org/1999/xlink" stroke-linecap="round" stroke-linejoin="round" fill-rule="evenodd" xml:space="preserve" >
<g fill="none" stroke="rgb(255,255,255)" stroke-width="15" >
<polyline points="38.7173,646.403 98.6262,683.485 " />
<polyline points="707.648,414.073 786.991,535.363 " />
<polyline points="777.233,544.517 798.517,606.789 " />
<polyline points="786.991,535.363 776.3,542.357 " />
<path d="M581.351,536.881  A60.0747,60.0747 0 0,0 624.327,517.881 " />
<path d="M117.396,533.616  A91.7002,91.7002 0 0,0 157.473,546.751 " />
<path d="M526.149,231.055  A1552.74,1552.74 0 0,0 707.648,414.073 " />
<path d="M550.723,535.432  A1344.56,1344.56 0 0,0 389.622,343.754 " />
<path d="M757.801,692.359  A39.58,39.58 0 0,0 803.646,660.571 " />
<path d="M306.581,211.845  A341.364,341.364 0 0,0 389.622,343.754 " />
<path d="M364.566,531.865  A47.2196,47.2196 0 0,0 339.839,531.526 " />
<path d="M165.127,721.187  A569.657,569.657 0 0,0 280.634,733.856 " />
<path d="M280.634,733.856  A1636.02,1636.02 0 0,0 433.442,720.772 " />
<path d="M120.758,699.493  A190.002,190.002 0 0,0 98.6262,683.485 " />
<path d="M777.233,544.517  A92.0237,92.0237 0 0,0 624.327,517.881 " />
<path d="M526.149,231.055  A1367.83,1367.83 0 0,0 284.894,35.1445 " />
<path d="M284.894,35.1445  A428.233,428.233 0 0,0 306.581,211.845 " />
<path d="M803.646,660.571  A98.5907,98.5907 0 0,0 798.517,606.789 " />
<path d="M117.396,533.616  A16.4265,16.4265 0 0,0 107.091,531.296 " />
<path d="M120.758,699.493  A102.481,102.481 0 0,0 165.127,721.187 " />
<path d="M83.6478,543.838  A192.973,192.973 0 0,0 38.7173,646.403 " />
<path d="M107.091,531.296  A31.5539,31.5539 0 0,0 83.6478,543.838 " />
<path d="M757.801,692.359  A1440.12,1440.12 0 0,0 433.442,720.772 " />
<path d="M157.473,546.751  A547.358,547.358 0 0,0 339.839,531.526 " />
<path d="M527.933,531.86  A75.4433,75.4433 0 0,0 493.233,532.91 " />
<path d="M364.566,531.865  A240.743,240.743 0 0,0 493.233,532.91 " />
<path d="M527.933,531.86  A248.454,248.454 0 0,0 581.351,536.881 " />
</g>
</svg>
