<?xml version="1.0" encoding="utf-8" standalone="no"?>
<svg viewBox="0 0 844 742" version="1.1" xmlns="http://www.w3.org/2000/svg" xmlns:xlink="http://www.w3.org/1999/xlink" stroke-linecap="round" stroke-linejoin="round" fill-rule="evenodd" xml:space="preserve" >
<g fill="none" stroke="rgb(255,255,255)" stroke-width="15" >
<polyline points="38.7173,620.509 98.6262,657.59 " />
<polyline points="777.233,518.622 798.517,580.894 " />
<path d="M527.933,505.966  A75.4433,75.4433 0 0,0 493.233,507.015 " />
<path d="M280.634,707.961  A1636.02,1636.02 0 0,0 433.442,694.878 " />
<path d="M364.566,505.971  A240.743,240.743 0 0,0 493.233,507.015 " />
<path d="M757.801,666.465  A39.58,39.58 0 0,0 803.646,634.676 " />
<path d="M581.351,510.987  A60.0747,60.0747 0 0,0 624.327,491.986 " />
<path d="M581.351,510.987  A627.678,627.678 0 0,0 298.463,34.0388 " />
<path d="M120.758,673.598  A190.002,190.002 0 0,0 98.6262,657.59 " />
<path d="M777.233,518.622  A92.0237,92.0237 0 0,0 624.327,491.986 " />
<path d="M364.566,505.971  A47.2196,47.2196 0 0,0 339.839,505.632 " />
<path d="M157.473,520.856  A547.358,547.358 0 0,0 339.839,505.632 " />
<path d="M120.758,673.598  A102.481,102.481 0 0,0 165.127,695.293 " />
<path d="M757.801,666.465  A1440.12,1440.12 0 0,0 433.442,694.878 " />
<path d="M107.091,505.402  A31.5539,31.5539 0 0,0 83.6478,517.944 " />
<path d="M117.396,507.722  A16.4265,16.4265 0 0,0 107.091,505.402 " />
<path d="M83.6478,517.944  A192.973,192.973 0 0,0 38.7173,620.509 " />
<path d="M504.377,82.0921  A512.17,512.17 0 0,0 298.463,34.0388 " />
<path d="M527.933,505.966  A248.454,248.454 0 0,0 581.351,510.987 " />
<path d="M803.646,634.676  A98.5907,98.5907 0 0,0 798.517,580.894 " />
<path d="M117.396,507.722  A91.7002,91.7002 0 0,0 157.473,520.856 " />
<path d="M165.127,695.293  A569.657,569.657 0 0,0 280.634,707.961 " />
<path d="M646.373,204.672  A345.451,345.451 0 0,0 504.377,82.0921 " />
<path d="M759.157,409.342  A1461.38,1461.38 0 0,0 646.373,204.672 " />
<path d="M798.517,580.894  A447.194,447.194 0 0,0 759.157,409.342 " />
<path d="M667.724,465.344  A718.386,718.386 0 0,0 483.982,73.0962 " />
</g>
</svg>
