<?xml version="1.0" encoding="utf-8" standalone="no"?>
<svg viewBox="0 0 854 1055" version="1.1" xmlns="http://www.w3.org/2000/svg" xmlns:xlink="http://www.w3.org/1999/xlink" stroke-linecap="round" stroke-linejoin="round" fill-rule="evenodd" xml:space="preserve" >
<g fill="none" stroke="rgb(255,255,255)" stroke-width="15" >
<polyline points="51.0855,908.586 42.6509,919.048 " />
<polyline points="442.695,649.462 729.768,302.058 " />
<polyline points="343.089,562.213 338.517,567.395 " />
<polyline points="439.891,646.447 436.762,650.323 " />
<polyline points="148.666,990.954 139.769,1001.03 " />
<polyline points="343.089,562.213 439.891,646.447 " />
<polyline points="476.436,685.746 439.891,646.447 " />
<polyline points="353.607,571.365 655.228,206.355 " />
<polyline points="297.186,530.967 343.089,562.213 " />
<polyline points="75.4686,901.414 151.987,965.306 " />
<path d="M42.6509,919.048  A17.0401,17.0401 0 0,0 42.4957,940.243 " />
<path d="M338.517,567.395  A4.44173,4.44173 0 0,0 337.593,571.606 " />
<path d="M51.0855,908.586  A35.5781,35.5781 0 0,0 75.8122,901.007 " />
<path d="M118.901,1004.74  A17.0401,17.0401 0 0,0 139.769,1001.03 " />
<path d="M76.9076,976.981  A283.677,283.677 0 0,0 118.901,1004.74 " />
<path d="M335.694,582.644  A12.591,12.591 0 0,0 337.593,571.606 " />
<path d="M432.766,651.942  A12.591,12.591 0 0,0 422.436,655.432 " />
<path d="M335.694,582.644  A1786.98,1786.98 0 0,0 75.4686,901.414 " />
<path d="M432.766,651.942  A4.44173,4.44173 0 0,0 436.762,650.323 " />
<path d="M42.4957,940.243  A283.677,283.677 0 0,0 76.9076,976.981 " />
<path d="M151.987,965.306  A35.5781,35.5781 0 0,0 148.666,990.954 " />
<path d="M655.228,206.355  A904.155,904.155 0 0,0 806.899,48.2163 " />
<path d="M811.582,159.631  A278.302,278.302 0 0,0 806.899,48.2163 " />
<path d="M151.987,965.306  A1786.98,1786.98 0 0,0 422.436,655.432 " />
<path d="M784.704,228.928  A178.022,178.022 0 0,0 811.582,159.631 " />
<path d="M729.768,302.058  A715.509,715.509 0 0,0 784.704,228.928 " />
</g>
</svg>
