<?xml version="1.0" encoding="utf-8" standalone="no"?>
<svg viewBox="0 0 1000 862" version="1.1" xmlns="http://www.w3.org/2000/svg" xmlns:xlink="http://www.w3.org/1999/xlink" stroke-linecap="round" stroke-linejoin="round" fill-rule="evenodd" xml:space="preserve" >
<g fill="none" stroke="rgb(255,255,255)" stroke-width="15" >
<polyline points="307.462,441.002 373.196,497.346 " />
<polyline points="307.462,441.002 373.196,497.346 " />
<polyline points="127.867,820.053 373.196,497.346 " />
<polyline points="663.723,50.5779 840.832,163.293 " />
<polyline points="127.867,820.053 373.196,497.346 " />
<polyline points="307.462,441.002 40.1683,753.335 " />
<polyline points="307.462,441.002 40.1683,753.335 " />
<polyline points="127.867,820.053 373.196,497.346 " />
<polyline points="307.462,441.002 373.196,497.346 " />
<polyline points="127.867,820.053 373.196,497.346 " />
<polyline points="307.462,441.002 40.1683,753.335 " />
<polyline points="307.462,441.002 373.196,497.346 " />
<polyline points="840.832,163.293 504.337,565.232 " />
<polyline points="307.462,441.002 40.1683,753.335 " />
<path d="M40.1683,753.335  A69.4624,69.4624 0 0,0 127.867,820.053 " />
<path d="M40.1683,753.335  A69.4624,69.4624 0 0,0 127.867,820.053 " />
<path d="M307.462,441.002  A3804.41,3804.41 0 0,0 574.536,69.0063 " />
<path d="M40.1683,753.335  A69.4624,69.4624 0 0,0 127.867,820.053 " />
<path d="M663.723,50.5779  A63.1963,63.1963 0 0,0 574.536,69.0063 " />
<path d="M429.513,508.287  A54.6945,54.6945 0 0,0 373.196,497.346 " />
<path d="M40.1683,753.335  A69.4624,69.4624 0 0,0 127.867,820.053 " />
<path d="M429.513,508.287  A504.048,504.048 0 0,0 504.337,565.232 " />
<circle cx="622.269" cy="88.759" r="20.3534" />
</g>
</svg>
