<?xml version="1.0" encoding="utf-8" standalone="no"?>
<svg viewBox="0 0 1050 921" version="1.1" xmlns="http://www.w3.org/2000/svg" xmlns:xlink="http://www.w3.org/1999/xlink" stroke-linecap="round" stroke-linejoin="round" fill-rule="evenodd" xml:space="preserve" >
<g fill="none" stroke="rgb(255,255,255)" stroke-width="15" >
<polyline points="404.017,377.288 490.294,453.772 " />
<polyline points="404.017,377.288 41.8103,785.871 " />
<polyline points="156.79,876.928 490.294,453.772 " />
<polyline points="507.128,450.987 510.264,453.021 " />
<path d="M877.19,42.2331  A2720.37,2720.37 0 0,0 510.264,453.021 " />
<path d="M507.128,450.987  A12.6614,12.6614 0 0,0 490.294,453.772 " />
<path d="M877.19,42.2331  A374.967,374.967 0 0,0 774.597,65.1917 " />
<path d="M41.8103,785.871  A96.3114,96.3114 0 0,0 156.79,876.928 " />
<path d="M774.597,65.1917  A728.194,728.194 0 0,0 404.017,377.288 " />
</g>
</svg>
