<?xml version="1.0" encoding="utf-8" standalone="no"?>
<svg viewBox="0 0 849 1020" version="1.1" xmlns="http://www.w3.org/2000/svg" xmlns:xlink="http://www.w3.org/1999/xlink" stroke-linecap="round" stroke-linejoin="round" fill-rule="evenodd" xml:space="preserve" >
<g fill="none" stroke="rgb(255,255,255)" stroke-width="15" >
<polyline points="314.163,596.988 38.7854,902.217 " />
<polyline points="124.708,971.208 379.519,654.71 " />
<polyline points="314.163,596.988 379.519,654.71 " />
<path d="M38.7854,902.217  A69.4624,69.4624 0 0,0 124.708,971.208 " />
<path d="M397.385,654.796  A22.6787,22.6787 0 0,0 379.519,654.71 " />
<path d="M765.063,174.011  A502.345,502.345 0 0,0 810.231,46.8098 " />
<path d="M810.231,46.8098  A7118.58,7118.58 0 0,0 314.163,596.988 " />
<path d="M410.917,662.511  A71.9525,71.9525 0 0,0 397.385,654.796 " />
<path d="M410.917,662.511  A3297.04,3297.04 0 0,0 765.063,174.011 " />
</g>
</svg>
